<?xml version="1.0" standalone="no"?>
<!DOCTYPE svg PUBLIC "-//W3C//DTD SVG 20010904//EN"
 "http://www.w3.org/TR/2001/REC-SVG-20010904/DTD/svg10.dtd">
<svg version="1.0" xmlns="http://www.w3.org/2000/svg"
 width="475.000000pt" height="475.000000pt" viewBox="0 0 475.000000 475.000000"
 preserveAspectRatio="xMidYMid meet">
<metadata>
Created by potrace 1.14, written by Peter Selinger 2001-2017
</metadata>
<g transform="translate(0.000000,475.000000) scale(0.100000,-0.100000)"
fill="#000000" stroke="none">
<path d="M2970 4295 c-7 -9 -10 -27 -6 -45 6 -31 72 -136 100 -159 9 -7 16
-17 16 -22 0 -5 -46 -101 -102 -214 l-103 -207 -45 7 c-24 4 -61 16 -82 26
-21 11 -67 26 -104 35 -48 11 -89 30 -153 73 -277 185 -466 270 -612 273 -59
1 -180 -50 -239 -100 l-44 -39 -58 23 c-72 28 -183 52 -262 57 -71 5 -96 0
-96 -20 0 -13 -4 -12 -27 3 -24 15 -47 17 -158 15 -141 -2 -301 16 -423 50
-41 11 -76 18 -79 16 -11 -12 36 -63 116 -123 217 -163 496 -259 753 -259 73
0 77 -1 72 -20 -16 -51 -56 -80 -161 -117 -171 -61 -460 -210 -501 -258 -10
-12 -12 -52 -7 -180 3 -91 7 -176 9 -190 2 -14 7 -63 11 -110 3 -47 9 -106 12
-132 8 -64 -11 -63 -70 2 -49 53 -51 66 -31 159 4 21 -9 38 -80 108 -47 46
-90 83 -95 83 -9 0 -26 -38 -37 -84 -10 -42 -36 -63 -104 -83 -33 -10 -60 -23
-60 -28 0 -6 20 -31 45 -55 l45 -44 -27 -23 c-14 -13 -44 -28 -65 -35 -22 -6
-48 -22 -58 -35 l-18 -23 -36 21 c-51 30 -66 21 -66 -41 0 -65 -19 -94 -87
-132 -30 -17 -52 -35 -50 -41 2 -7 46 -38 98 -70 80 -50 99 -57 129 -53 20 3
45 -1 59 -8 18 -10 34 -11 58 -4 31 8 41 5 93 -28 49 -32 59 -44 64 -74 8 -52
137 -172 316 -295 47 -32 87 -60 88 -61 2 -2 21 -76 42 -166 50 -212 121 -454
169 -576 47 -119 44 -118 267 -128 88 -3 160 -8 162 -9 2 -2 -11 -22 -27 -46
-39 -56 -64 -153 -59 -234 l3 -63 -42 -5 c-52 -6 -109 -46 -116 -82 -3 -18 2
-35 18 -52 21 -26 23 -26 155 -25 143 2 165 5 173 27 3 7 7 53 8 101 3 150 34
235 117 324 l48 53 109 2 c446 11 615 16 645 20 19 2 78 6 130 10 119 8 262
25 415 50 44 7 83 10 87 6 11 -11 178 -348 229 -464 27 -61 54 -114 60 -117
11 -8 306 -3 327 5 21 8 13 43 -14 64 -27 21 -70 35 -132 45 -19 2 -35 6 -36
8 -2 2 -14 32 -28 68 l-25 66 26 41 c14 23 44 61 66 85 398 430 487 560 580
841 41 124 85 309 85 355 0 10 9 31 20 45 25 32 34 143 14 181 -7 14 -15 43
-19 63 l-6 38 39 -38 39 -38 59 35 c123 73 239 161 239 181 0 37 -181 85 -275
74 -8 -1 -27 2 -42 6 -24 6 -29 3 -50 -37 l-22 -43 -8 90 c-15 191 -110 484
-220 680 -153 275 -415 531 -701 686 -132 71 -274 187 -385 312 -36 41 -44 44
-62 22z m214 -328 c39 -35 151 -119 249 -187 149 -104 198 -145 302 -252 151
-155 210 -236 286 -393 79 -163 132 -329 164 -518 15 -87 26 -159 24 -161 -7
-6 -642 -136 -646 -133 -2 2 -17 85 -33 185 -54 331 -130 653 -209 886 -45
133 -59 151 -151 187 -30 12 -100 31 -156 42 l-101 21 96 193 c52 106 97 193
99 193 2 0 36 -29 76 -63z m-2517 -1339 l43 -42 -27 -23 c-14 -13 -29 -23 -33
-23 -15 0 -46 47 -44 68 1 12 2 31 3 42 2 28 10 25 58 -22z m-90 -130 l21 -23
-37 -61 -37 -61 -24 19 c-19 15 -23 29 -24 76 l-1 57 35 6 c19 4 38 7 41 8 3
0 15 -9 26 -21z m3643 -173 c0 -14 -4 -25 -9 -25 -6 0 -18 -13 -27 -29 -18
-31 -31 -35 -134 -46 -82 -9 -430 -14 -448 -7 -13 4 553 127 606 131 6 1 12
-10 12 -24z m-25 -317 c-74 -367 -208 -646 -425 -885 -75 -84 -193 -238 -202
-264 -9 -28 -45 16 -98 121 l-58 117 51 13 c82 20 154 56 173 85 15 23 16 46
11 218 -4 106 -9 203 -11 217 -2 14 -7 66 -11 115 -3 50 -8 97 -10 105 -2 8
-6 50 -10 93 l-6 77 168 0 c169 1 354 9 362 16 2 2 20 4 38 4 34 0 34 -1 28
-32z"/>
</g>
</svg>
